<svg width="387" height="161" viewBox="0 0 387 161" fill="none" xmlns="http://www.w3.org/2000/svg">
<g clip-path="url(#clip0_336_10)">
<path d="M49.7388 53.583L51.1857 52.1378C56.8211 46.5007 65.9942 46.5007 71.6313 52.1378C76.2957 56.8022 77.0867 63.8845 74.0319 69.3849C73.7809 69.8349 73.5005 70.2728 73.2011 70.7003C73.0696 70.8855 72.9381 71.0707 72.7996 71.2507C72.694 71.3822 72.5902 71.5137 72.4829 71.6435C72.2146 71.9655 71.9359 72.2822 71.633 72.5834L70.1879 74.0303L58.943 85.2751C55.9575 88.2607 51.9836 89.647 48.0686 89.4653C47.9232 89.4601 47.7796 89.4601 47.6359 89.448C47.2915 89.422 46.9471 89.377 46.6009 89.3268C46.5023 89.313 46.4053 89.3026 46.3084 89.287C45.9311 89.223 45.5538 89.1416 45.1817 89.0464C45.1211 89.0308 45.0605 89.0187 45.0017 89.0049C44.6019 88.8976 44.2055 88.773 43.8126 88.631C43.7815 88.6206 43.7521 88.612 43.7209 88.5999C43.3107 88.4493 42.9057 88.278 42.5094 88.0893C42.4973 88.0841 42.5059 88.0599 42.4955 88.053C42.0871 87.8557 41.6267 87.6982 41.3117 87.3849L41.3099 87.3831C40.6765 86.7497 39.7453 86.3672 39.0409 85.7268C38.8661 85.5676 38.674 85.4326 38.5061 85.263C37.1336 83.8905 36.1021 82.3051 35.3976 80.6158L25.842 90.1714C26.8407 91.6789 28.002 93.112 29.3295 94.4395C29.6601 94.7701 29.9976 95.0903 30.3386 95.4001C30.5238 95.568 30.7159 95.7255 30.9045 95.8864C31.0638 96.0231 31.2178 96.1633 31.3788 96.2931C31.6419 96.5095 31.9101 96.712 32.1801 96.9162C32.2701 96.9855 32.3584 97.0581 32.4484 97.1239C32.7617 97.3558 33.0801 97.5756 33.3986 97.792C33.4488 97.8249 33.4972 97.8612 33.5474 97.8941C33.8988 98.1278 34.2553 98.3528 34.6153 98.5691C34.6344 98.5795 34.6517 98.1745 34.6707 98.1849C35.8096 98.8668 36.9882 99.5383 38.1946 99.5383C38.1946 99.5383 38.1963 99.5383 38.198 99.5383C48.1413 104.731 60.0178 102.107 68.104 94.0206L70.4561 91.878L80.794 81.6439C81.2336 81.206 81.6456 80.8045 82.0506 80.3458C82.1319 80.2541 82.2115 80.1866 82.2894 80.0932C91.4711 69.3209 90.9779 53.1399 80.7957 42.9595C70.0892 32.2495 52.7278 32.2564 42.0213 42.9664L31.6817 53.3078C37.5853 51.6428 43.8801 51.738 49.7388 53.583Z" fill="#F1A820"/>
<path d="M38.5304 105.686L37.0852 107.131C31.4481 112.768 22.2767 112.768 16.6396 107.131C11.9734 102.465 11.1825 95.3846 14.239 89.8842C14.49 89.4342 14.7721 88.9963 15.0715 88.5688C15.2031 88.3836 15.3346 88.2001 15.4748 88.0201C15.5769 87.8869 15.6807 87.7553 15.7881 87.6255C16.0581 87.3036 16.335 86.9869 16.6379 86.6857L18.0831 85.2405L29.3296 73.9957C32.3152 71.0101 36.289 69.6238 40.204 69.8055C40.3477 69.8107 40.4931 69.8107 40.6367 69.8228C40.9829 69.8488 41.3273 69.8938 41.6717 69.944C41.7704 69.9578 41.8673 69.9682 41.9642 69.9838C42.3415 70.0478 42.7188 70.1292 43.0909 70.2244C43.1515 70.2399 43.2121 70.252 43.2709 70.2642C43.6707 70.3732 44.0671 70.4978 44.46 70.6397C44.4911 70.6501 44.5205 70.6605 44.5517 70.6709C44.9619 70.8232 45.3669 70.9928 45.7632 71.1815C45.7754 71.1867 45.6525 71.2126 45.6629 71.2178C46.0696 71.4134 46.7307 71.5692 46.7307 71.8824C46.7307 71.8842 46.7307 71.8859 46.7307 71.8859C48.4615 72.5176 48.4113 72.9001 49.1157 73.5405C49.2906 73.6997 49.5398 73.8365 49.7077 74.0044C51.0819 75.3769 52.1394 76.9622 52.8456 78.6515L62.4132 69.0976C61.4163 67.5901 60.2636 66.157 58.9344 64.8278C58.6038 64.499 58.2681 64.1788 57.9271 63.8672C57.7419 63.6976 57.5498 63.5419 57.3629 63.3809C57.2036 63.2459 57.0496 63.104 56.8886 62.9742C56.6256 62.7595 56.359 62.5553 56.089 62.3511C56.0007 62.2836 55.9125 62.2092 55.8225 62.1451C55.5092 61.9115 55.1907 61.6917 54.8723 61.4753C54.8221 61.4424 54.7736 61.4078 54.7234 61.3732C54.3721 61.1395 54.0138 60.9145 53.6556 60.6982C53.6348 60.6861 53.6192 61.0928 53.6002 61.0824C52.4596 60.4022 51.2809 59.7307 50.0746 59.7307C50.0746 59.7307 50.0729 59.7307 50.0711 59.7307C40.1279 54.5384 28.2496 57.1622 20.1634 65.2484L17.8113 67.3911L7.47344 77.6251C7.03555 78.063 6.6219 78.4645 6.21863 78.9232C6.13728 79.0149 6.05767 79.0824 5.97805 79.1759C-3.20195 89.9482 -2.70868 106.127 7.47344 116.308C18.1817 127.016 35.5413 127.011 46.2496 116.303L56.5892 105.961C50.6838 107.626 44.389 107.531 38.5304 105.686Z" fill="#F1A820"/>
</g>
<path d="M119.333 61H130.7V21.9333H119.333V61ZM146.382 61V41.5667C146.427 41.5222 146.505 41.4556 146.616 41.3667C146.749 41.2556 146.838 41.1778 146.882 41.1333C146.949 41.0889 147.038 41.0222 147.149 40.9333C147.282 40.8222 147.382 40.7444 147.449 40.7C147.516 40.6556 147.605 40.6 147.716 40.5333C147.827 40.4444 147.927 40.3889 148.016 40.3667C148.105 40.3222 148.205 40.2778 148.316 40.2333C148.449 40.1667 148.56 40.1222 148.649 40.1C148.76 40.0778 148.871 40.0556 148.982 40.0333C149.116 40.0111 149.249 40 149.382 40C151.227 40 152.116 41.0444 152.049 43.1333V61H163.049V44.1C163.049 43.9444 163.06 43.7333 163.082 43.4667C163.082 43.2 163.082 43 163.082 42.8667C163.082 38.9556 162.449 36.1667 161.182 34.5C159.938 32.8333 157.793 32 154.749 32C153.882 32 152.993 32.1778 152.082 32.5333C151.193 32.8667 150.427 33.2778 149.782 33.7667C149.138 34.2333 148.549 34.7111 148.016 35.2C147.505 35.6889 147.116 36.1111 146.849 36.4667L146.449 36.9667V32.6667H140.782L133.616 34.6333V38.2L135.616 39.4333V61H146.382ZM178.023 61V41.5667C178.067 41.5222 178.145 41.4556 178.256 41.3667C178.39 41.2556 178.478 41.1778 178.523 41.1333C178.59 41.0889 178.678 41.0222 178.79 40.9333C178.923 40.8222 179.023 40.7444 179.09 40.7C179.156 40.6556 179.245 40.6 179.356 40.5333C179.467 40.4444 179.567 40.3889 179.656 40.3667C179.745 40.3222 179.845 40.2778 179.956 40.2333C180.09 40.1667 180.201 40.1222 180.29 40.1C180.401 40.0778 180.512 40.0556 180.623 40.0333C180.756 40.0111 180.89 40 181.023 40C182.867 40 183.756 41.0444 183.69 43.1333V61H194.69V44.1C194.69 43.9444 194.701 43.7333 194.723 43.4667C194.723 43.2 194.723 43 194.723 42.8667C194.723 38.9556 194.09 36.1667 192.823 34.5C191.578 32.8333 189.434 32 186.39 32C185.523 32 184.634 32.1778 183.723 32.5333C182.834 32.8667 182.067 33.2778 181.423 33.7667C180.778 34.2333 180.19 34.7111 179.656 35.2C179.145 35.6889 178.756 36.1111 178.49 36.4667L178.09 36.9667V32.6667H172.423L165.256 34.6333V38.2L167.256 39.4333V61H178.023ZM212.297 57.7C210.252 57.7 209.23 55.6 209.23 51.4V40.5667C209.23 39.1444 209.497 38.0444 210.03 37.2667C210.564 36.4889 211.308 36.1 212.264 36.1C214.308 36.1 215.33 38.2667 215.33 42.6V53.1333C215.33 54.5556 215.064 55.6778 214.53 56.5C214.019 57.3 213.275 57.7 212.297 57.7ZM212.03 61.7C217.297 61.7 221.152 60.4778 223.597 58.0333C226.064 55.5889 227.297 51.8111 227.297 46.7C227.297 41.7667 226.13 38.0889 223.797 35.6667C221.486 33.2222 217.719 32 212.497 32C207.141 32 203.275 33.2778 200.897 35.8333C198.519 38.3667 197.33 42.1444 197.33 47.1667C197.33 52.2333 198.508 55.9222 200.864 58.2333C203.219 60.5444 206.941 61.7 212.03 61.7ZM237.395 61H247.895L256.395 32.6667H247.395L244.928 42.9L243.228 51.7333L241.695 42.9L239.561 32.6667H227.595L237.395 61ZM272.672 58.0333L273.739 61H282.872L281.939 58.4V44.8333C281.939 42.3889 281.75 40.3778 281.372 38.8C280.994 37.2 280.35 35.8889 279.439 34.8667C278.55 33.8222 277.383 33.0889 275.939 32.6667C274.494 32.2222 272.661 32 270.439 32C267.927 32 265.461 32.3778 263.039 33.1333C260.616 33.8667 258.65 34.7222 257.139 35.7L259.272 40.2333C260.116 39.7889 261.283 39.4111 262.772 39.1C264.261 38.7667 265.694 38.6 267.072 38.6C268.672 38.6 269.827 38.8778 270.539 39.4333C271.272 39.9889 271.639 40.9444 271.639 42.3V42.9C270.883 42.9 270.094 42.9333 269.272 43C268.45 43.0667 267.516 43.2 266.472 43.4C265.427 43.6 264.427 43.8556 263.472 44.1667C262.539 44.4556 261.605 44.8667 260.672 45.4C259.739 45.9111 258.939 46.5 258.272 47.1667C257.605 47.8333 257.061 48.6556 256.639 49.6333C256.216 50.5889 256.005 51.6444 256.005 52.8C256.005 58.7333 259.005 61.7 265.005 61.7C265.894 61.7 266.761 61.5667 267.605 61.3C268.45 61.0556 269.161 60.7556 269.739 60.4C270.339 60.0444 270.861 59.6889 271.305 59.3333C271.772 58.9778 272.116 58.6667 272.339 58.4L272.672 58.0333ZM270.039 55.8333C268.15 55.8333 267.205 54.4444 267.205 51.6667C267.205 50.1111 267.605 48.9667 268.405 48.2333C269.205 47.4778 270.283 47.1 271.639 47.1V55.1C271.639 55.1 271.572 55.1667 271.439 55.3C271.305 55.4111 271.105 55.5333 270.839 55.6667C270.594 55.7778 270.327 55.8333 270.039 55.8333ZM294.002 61.7C295.513 61.7 296.879 61.5333 298.102 61.2C299.346 60.8667 300.235 60.5444 300.768 60.2333C301.302 59.9 301.735 59.5667 302.068 59.2333V54.7C301.824 54.9 301.513 55.0556 301.135 55.1667C300.757 55.2778 300.335 55.3333 299.868 55.3333C298.802 55.3333 298.013 55.0444 297.502 54.4667C296.99 53.8889 296.735 52.7111 296.735 50.9333V38.5333H302.302V32.6667H296.835V24.9H290.968L287.568 32.6667L283.635 33.9V38.5333H285.935V49.8667C285.935 54.1556 286.524 57.2 287.702 59C288.902 60.8 291.002 61.7 294.002 61.7ZM305.245 61H315.978V32.6667H310.411L303.245 34.6333V38.2L305.245 39.4333V61ZM310.078 29.6H311.345L317.045 24.1V22.9333L311.345 17.4667H310.078L304.611 22.9333V24.1L310.078 29.6ZM333.977 57.7C331.932 57.7 330.91 55.6 330.91 51.4V40.5667C330.91 39.1444 331.177 38.0444 331.71 37.2667C332.243 36.4889 332.988 36.1 333.943 36.1C335.988 36.1 337.01 38.2667 337.01 42.6V53.1333C337.01 54.5556 336.743 55.6778 336.21 56.5C335.699 57.3 334.954 57.7 333.977 57.7ZM333.71 61.7C338.977 61.7 342.832 60.4778 345.277 58.0333C347.743 55.5889 348.977 51.8111 348.977 46.7C348.977 41.7667 347.81 38.0889 345.477 35.6667C343.165 33.2222 339.399 32 334.177 32C328.821 32 324.954 33.2778 322.577 35.8333C320.199 38.3667 319.01 42.1444 319.01 47.1667C319.01 52.2333 320.188 55.9222 322.543 58.2333C324.899 60.5444 328.621 61.7 333.71 61.7ZM363.374 61V41.5667C363.419 41.5222 363.497 41.4556 363.608 41.3667C363.741 41.2556 363.83 41.1778 363.874 41.1333C363.941 41.0889 364.03 41.0222 364.141 40.9333C364.274 40.8222 364.374 40.7444 364.441 40.7C364.508 40.6556 364.597 40.6 364.708 40.5333C364.819 40.4444 364.919 40.3889 365.008 40.3667C365.097 40.3222 365.197 40.2778 365.308 40.2333C365.441 40.1667 365.552 40.1222 365.641 40.1C365.752 40.0778 365.863 40.0556 365.974 40.0333C366.108 40.0111 366.241 40 366.374 40C368.219 40 369.108 41.0444 369.041 43.1333V61H380.041V44.1C380.041 43.9444 380.052 43.7333 380.074 43.4667C380.074 43.2 380.074 43 380.074 42.8667C380.074 38.9556 379.441 36.1667 378.174 34.5C376.93 32.8333 374.786 32 371.741 32C370.874 32 369.986 32.1778 369.074 32.5333C368.186 32.8667 367.419 33.2778 366.774 33.7667C366.13 34.2333 365.541 34.7111 365.008 35.2C364.497 35.6889 364.108 36.1111 363.841 36.4667L363.441 36.9667V32.6667H357.774L350.608 34.6333V38.2L352.608 39.4333V61H363.374Z" fill="white"/>
<path d="M119.233 122H140.2V113.067H130.267V82.9333H119.233V122ZM143.623 122H154.357V93.6667H148.79L141.623 95.6333V99.2L143.623 100.433V122ZM148.457 90.6H149.723L155.423 85.1V83.9333L149.723 78.4667H148.457L142.99 83.9333V85.1L148.457 90.6ZM169.722 122V102.567C169.767 102.522 169.844 102.456 169.955 102.367C170.089 102.256 170.178 102.178 170.222 102.133C170.289 102.089 170.378 102.022 170.489 101.933C170.622 101.822 170.722 101.744 170.789 101.7C170.855 101.656 170.944 101.6 171.055 101.533C171.167 101.444 171.267 101.389 171.355 101.367C171.444 101.322 171.544 101.278 171.655 101.233C171.789 101.167 171.9 101.122 171.989 101.1C172.1 101.078 172.211 101.056 172.322 101.033C172.455 101.011 172.589 101 172.722 101C174.567 101 175.455 102.044 175.389 104.133V122H186.389V105.1C186.389 104.944 186.4 104.733 186.422 104.467C186.422 104.2 186.422 104 186.422 103.867C186.422 99.9556 185.789 97.1667 184.522 95.5C183.278 93.8333 181.133 93 178.089 93C177.222 93 176.333 93.1778 175.422 93.5333C174.533 93.8667 173.767 94.2778 173.122 94.7667C172.478 95.2333 171.889 95.7111 171.355 96.2C170.844 96.6889 170.455 97.1111 170.189 97.4667L169.789 97.9667V93.6667H164.122L156.955 95.6333V99.2L158.955 100.433V122H169.722ZM206.829 122H219.829L210.896 106.767L219.629 93.6667H207.129L201.663 108.367L206.829 122ZM190.129 122H200.996V78.3333H198.829L188.129 80V83.1L190.129 84.3V122ZM257.877 118.467L258.277 122H264.21L264.244 99.0667H249.41V105.867L253.81 106.867V110.267C253.81 111.467 253.699 112.456 253.477 113.233C253.255 113.989 252.91 114.567 252.444 114.967C251.977 115.344 251.477 115.611 250.944 115.767C250.41 115.9 249.755 115.967 248.977 115.967C247.399 115.967 246.344 114.8 245.81 112.467C245.299 110.133 245.044 106.556 245.044 101.733C245.044 99.4222 245.144 97.4667 245.344 95.8667C245.544 94.2444 245.799 92.9667 246.11 92.0333C246.444 91.0778 246.888 90.3556 247.444 89.8667C248.022 89.3556 248.599 89.0222 249.177 88.8667C249.755 88.7111 250.488 88.6333 251.377 88.6333C252.466 88.6333 253.255 88.7667 253.744 89.0333L255.644 93.4667H261.71L262.21 85.8C262.166 85.7556 262.099 85.6889 262.01 85.6C261.944 85.5111 261.755 85.3444 261.444 85.1C261.133 84.8556 260.788 84.6333 260.41 84.4333C260.055 84.2111 259.555 83.9667 258.91 83.7C258.288 83.4111 257.622 83.1778 256.91 83C256.199 82.8 255.333 82.6333 254.31 82.5C253.31 82.3667 252.255 82.3 251.144 82.3C248.677 82.3 246.477 82.5222 244.544 82.9667C242.61 83.3889 240.966 84.0333 239.61 84.9C238.255 85.7667 237.11 86.7889 236.177 87.9667C235.244 89.1222 234.51 90.5 233.977 92.1C233.444 93.7 233.055 95.3778 232.81 97.1333C232.588 98.8889 232.477 100.867 232.477 103.067C232.477 106.022 232.744 108.656 233.277 110.967C233.833 113.278 234.699 115.333 235.877 117.133C237.055 118.933 238.644 120.311 240.644 121.267C242.666 122.222 245.055 122.7 247.81 122.7C251.699 122.7 255.055 121.289 257.877 118.467ZM267.573 122H278.44V78.3333H276.273L265.573 80V83.1L267.573 84.3V122ZM296.281 118.7C294.237 118.7 293.215 116.6 293.215 112.4V101.567C293.215 100.144 293.481 99.0444 294.015 98.2667C294.548 97.4889 295.292 97.1 296.248 97.1C298.292 97.1 299.315 99.2667 299.315 103.6V114.133C299.315 115.556 299.048 116.678 298.515 117.5C298.003 118.3 297.259 118.7 296.281 118.7ZM296.015 122.7C301.281 122.7 305.137 121.478 307.581 119.033C310.048 116.589 311.281 112.811 311.281 107.7C311.281 102.767 310.115 99.0889 307.781 96.6667C305.47 94.2222 301.703 93 296.481 93C291.126 93 287.259 94.2778 284.881 96.8333C282.503 99.3667 281.315 103.144 281.315 108.167C281.315 113.233 282.492 116.922 284.848 119.233C287.203 121.544 290.926 122.7 296.015 122.7ZM331.979 122C333.824 122 335.457 121.622 336.879 120.867C338.324 120.089 339.501 119.022 340.412 117.667C341.324 116.311 342.013 114.756 342.479 113C342.946 111.222 343.179 109.289 343.179 107.2C343.179 102.756 342.313 99.2778 340.579 96.7667C338.868 94.2556 336.179 93 332.512 93C331.646 93 330.824 93.1 330.046 93.3C329.29 93.5 328.612 93.7667 328.013 94.1C327.413 94.4333 326.901 94.7778 326.479 95.1333C326.057 95.4889 325.668 95.8667 325.312 96.2667V78.3333H323.146L312.446 80V83.1L314.446 84.3V122H325.312V120.433C327.268 121.478 329.49 122 331.979 122ZM327.079 117.367C326.813 117.367 326.535 117.356 326.246 117.333C325.957 117.289 325.646 117.222 325.312 117.133V99.8C326.157 99.2 326.99 98.9 327.813 98.9C328.901 98.9 329.79 99.4222 330.479 100.467C331.19 101.489 331.546 102.956 331.546 104.867V110.533C331.546 115.089 330.057 117.367 327.079 117.367ZM361.051 119.033L362.117 122H371.251L370.317 119.4V105.833C370.317 103.389 370.129 101.378 369.751 99.8C369.373 98.2 368.729 96.8889 367.817 95.8667C366.929 94.8222 365.762 94.0889 364.317 93.6667C362.873 93.2222 361.04 93 358.817 93C356.306 93 353.84 93.3778 351.417 94.1333C348.995 94.8667 347.029 95.7222 345.517 96.7L347.651 101.233C348.495 100.789 349.662 100.411 351.151 100.1C352.64 99.7667 354.073 99.6 355.451 99.6C357.051 99.6 358.206 99.8778 358.917 100.433C359.651 100.989 360.017 101.944 360.017 103.3V103.9C359.262 103.9 358.473 103.933 357.651 104C356.829 104.067 355.895 104.2 354.851 104.4C353.806 104.6 352.806 104.856 351.851 105.167C350.917 105.456 349.984 105.867 349.051 106.4C348.117 106.911 347.317 107.5 346.651 108.167C345.984 108.833 345.44 109.656 345.017 110.633C344.595 111.589 344.384 112.644 344.384 113.8C344.384 119.733 347.384 122.7 353.384 122.7C354.273 122.7 355.14 122.567 355.984 122.3C356.829 122.056 357.54 121.756 358.117 121.4C358.717 121.044 359.24 120.689 359.684 120.333C360.151 119.978 360.495 119.667 360.717 119.4L361.051 119.033ZM358.417 116.833C356.529 116.833 355.584 115.444 355.584 112.667C355.584 111.111 355.984 109.967 356.784 109.233C357.584 108.478 358.662 108.1 360.017 108.1V116.1C360.017 116.1 359.951 116.167 359.817 116.3C359.684 116.411 359.484 116.533 359.217 116.667C358.973 116.778 358.706 116.833 358.417 116.833ZM374.214 122H385.08V78.3333H382.914L372.214 80V83.1L374.214 84.3V122Z" fill="white"/>
<defs>
<clipPath id="clip0_336_10">
<rect width="90" height="90" fill="white" transform="translate(0 125.5) rotate(-90)"/>
</clipPath>
</defs>
</svg>
